<svg xmlns="http://www.w3.org/2000/svg" xmlns:xlink="http://www.w3.org/1999/xlink" width="164px" height="42px" viewBox="0 0 42   42" version="1.1">
    <!-- Generator: Sketch 51.3 (57544) - http://www.bohemiancoding.com/sketch -->
    <title>logo</title>
    <desc>Created with Sketch.</desc>
    <defs/>
    <g id="Page-1" stroke="none" stroke-width="1" fill="none" fill-rule="evenodd">
        <g id="logo" transform="translate(1.000000, 1.000000)">
            <g id="Group" fill-rule="nonzero">
                <g id="Group-4">
                    <polygon id="Polygon-Copy" stroke="#2D505F" stroke-width="1.44" fill="#79F2A5" points="34.1431578 0.482926829 34.1431578 29.9414634 17.4 39.6 0.656842194 29.9414634 0.656842194 0.482926829"/>
                    <polygon id="Polygon" stroke="#2D505F" stroke-width="1.44" fill="#3399D6" points="17.4 0.965853659 34.1431578 10.6243902 34.1431578 29.9414634 17.4 39.6 0.656842194 29.9414634 0.656842194 10.6243902"/>
                    <polygon id="Polygon-Copy-2" fill="#40DCFF" points="17.4 0.965853659 34.1431578 29.9414634 17.4 39.6 0.656842194 29.9414634"/>
                    <path d="M1.06902174,10.806359 L33.8890013,29.8577965" id="Path-3" stroke="#2D505F" stroke-width="1.44"/>
                    <path d="M1.06902174,10.806359 L33.8890013,29.8577965" id="Path-3-Copy" stroke="#2D505F" stroke-width="1.44" transform="translate(17.479012, 20.332078) scale(-1, 1) translate(-17.479012, -20.332078) "/>
                    <path d="M17.4790115,1.38294602 L17.4790115,39.059282" id="Path-3-Copy-2" stroke="#2D505F" stroke-width="1.44" transform="translate(17.479012, 20.221114) scale(-1, 1) translate(-17.479012, -20.221114) "/>
                    <path d="M1.00243797,1.15599311 L17.4099094,29.7698527" id="Path-3-Copy-3" stroke="#2D505F" stroke-width="1.44" transform="translate(9.206174, 15.462923) scale(-1, 1) translate(-9.206174, -15.462923) "/>
                    <path d="M17.3476659,0.945219288 L33.9123449,29.7698527" id="Path-3-Copy-4" stroke="#2D505F" stroke-width="1.44"/>
                    <polygon id="Polygon-Copy-3" stroke="#2D505F" stroke-width="1.44" points="17.4 0.965853659 34.1431578 10.6243902 34.1431578 29.9414634 17.4 39.6 0.656842194 29.9414634 0.656842194 10.6243902"/>
                </g>
            </g>
        </g>
    </g>
</svg>
